<?xml version="1.0" encoding="UTF-8" standalone="no"?>
<!DOCTYPE svg PUBLIC "-//W3C//DTD SVG 1.1//EN" "http://www.w3.org/Graphics/SVG/1.1/DTD/svg11.dtd">
<svg width="100%" height="100%" viewBox="0 0 1772 1772" version="1.1" xmlns="http://www.w3.org/2000/svg" xmlns:xlink="http://www.w3.org/1999/xlink" xml:space="preserve" xmlns:serif="http://www.serif.com/" style="fill-rule:evenodd;clip-rule:evenodd;stroke-linejoin:round;stroke-miterlimit:2;">
    <g id="Artboard2" transform="matrix(1.02548,0,0,1.16931,-1353.76,-568.774)">
        <rect x="1320.13" y="486.419" width="1727.64" height="1515.13" style="fill:none;"/>
        <clipPath id="_clip1">
            <rect x="1320.13" y="486.419" width="1727.64" height="1515.13"/>
        </clipPath>
        <g clip-path="url(#_clip1)">
            <g transform="matrix(4.76945,0,0,-4.18277,1320.13,1932.43)">
                <path d="M304.328,0L4.613,0L0.238,4.078L0.117,5.789L0,7.5L0.391,10.5L4.266,14.477L22.414,15.5L30.961,41.508L38.508,56.5L42.434,62.289L46.359,68.074L50.867,73.149L55.375,78.227L61.059,83.215L66.738,88.199L73.914,92.153L81.094,96.106L84.184,100.918L87.27,105.731L98.738,116.606L107.738,122.739L114.738,126.25L121.738,129.766L130.238,132.5L138.738,135.231L162.973,136.262L178.348,132.84L192.738,125.262L199.738,121.547L206.738,117.836L220.152,118.563L228.738,124.578L235.293,135.5L237.559,143.5L237.277,162.5L234.812,179L232.352,195.5L226.297,236.18L224.566,254.078L222.836,271.973L223.895,279.344L224.957,286.711L227.457,292.172L229.957,297.637L233.676,301.246L237.391,304.856L241.805,306.93L246.215,309L253.984,309L258.113,307.547L262.238,306.09L262.238,307.754L251.816,312.239L241.512,311.176L231.559,306.129L228.402,302.539L225.25,298.946L223.355,295.223L221.457,291.5L218.238,280.641L218.238,260.235L220.254,244.867L222.273,229.5L226.211,202.5L229.34,182L232.465,161.5L232.531,152L232.594,142.5L228.133,132.5L224.938,129.168L221.738,125.832L219.035,124.418L216.336,123L206.629,123L196.738,127.953L191.105,133.203L191.98,134.078L198.457,134.36L204.93,134.641L208.23,136.571L211.527,138.5L213.629,141.321L215.727,144.137L216.051,151.821L216.371,159.5L209.855,205L203.344,250.5L201.242,273.649L202.242,281.574L203.246,289.5L205.328,295.77L207.41,302.035L215.363,313.942L219.926,317.961L224.488,321.977L229.613,324.383L234.738,326.785L240.668,328.004L246.602,329.219L252.555,328.547L258.512,327.871L269.738,323.739L278.707,314.621L287.68,305.5L304.207,304.977L320.738,304.453L326.738,301.672L332.738,298.895L336.074,295.699L339.414,292.5L343.273,285.008L343.832,280.754L344.395,276.5L341.738,273.024L336.738,272.094L331.738,271.168L303.738,268.965L282.105,266.926L276.891,264.973L271.672,263.02L267.57,258.762L263.469,254.5L262.355,252.317L261.238,250.133L261.238,243L263.457,243L272.32,247.75L281.18,252.5L282.957,251.426L284.738,250.352L295.277,236.5L300.363,226.625L305.453,216.75L308.871,206.625L312.293,196.5L315.059,184.5L316.293,174.59L317.523,164.68L316.926,149.09L316.324,133.5L315.262,127.262L314.195,121.02L310.684,108.813L307.168,96.602L297.816,77.5L285.871,59.5L273.305,46.922L260.738,34.34L254.652,30.246L248.57,26.153L238.652,20.828L228.738,15.5L266.574,15L304.414,14.5L306.824,11.696L309.238,8.891L309.238,4.91L306.781,2.457L304.328,0ZM90.789,89L92.195,89L101.582,95.25L110.965,101.5L116.352,104.817L121.738,108.129L118.117,107.649L114.5,107.172L109.543,105.039L104.59,102.907L97.691,95.953L90.789,89ZM275.738,292.16L280.738,292.16L278.238,293.168L275.738,292.16ZM330.609,0L326.238,0L322.238,4L322.238,10L326.238,14L330.887,14L333.062,11.688L335.238,9.371L335.238,4.352L332.922,2.176L330.609,0ZM356.367,0L353.145,0L350.691,2.457L348.238,4.91L348.238,8.133L349.262,10.043L350.281,11.957L354.195,14.051L356.75,13.41L359.309,12.766L360.77,9.942L362.23,7.114L361.281,4.617L360.332,2.125L358.352,1.063L356.367,0ZM46.086,98L44.164,98L40.352,106.899L36.344,120.5L35.195,127.219L34.043,133.934L33.891,142.719L33.738,151.5L80.738,151.5L81.34,139.86L70.289,128.965L59.234,118.067L52.66,108.035L46.086,98ZM94.789,149.157L93.008,148.813L93.453,150.157L93.902,151.5L95.684,151.848L97.469,152.192L97.02,150.848L96.57,149.5L94.789,149.157ZM199.52,159.102L198.738,159.199L191.363,161.617L183.984,164.035L175.48,165.52L166.977,167L159.621,167L157.766,168.36L155.91,169.715L156.551,192.477L157.191,215.242L159.48,218L190.367,218L192.184,217.031L194,216.059L194.656,210.281L195.312,204.5L198.367,183.215L201.422,161.926L200.859,160.465L200.301,159L199.52,159.102ZM57.188,163L34.176,163L32.988,166.094L34.16,175.297L35.336,184.5L37.336,192.5L39.332,200.5L41.926,207.5L44.516,214.5L47.547,218L67.141,217.989L86.738,217.973L88.215,217.039L89.688,216.106L87.918,209.805L86.145,203.504L84.211,194.504L82.281,185.504L81.699,176.504L81.113,167.504L80.199,163.004L57.188,163ZM109.023,163.063L94.309,163L92.207,166.922L94.309,185.5L96.227,194.688L98.145,203.871L99.762,209.438L101.379,215L104.379,218L143.074,218L144.527,217.446L145.98,216.887L145.469,194.196L144.961,171.5L144.266,169.586L143.57,167.668L133.652,165.395L123.738,163.121L109.023,163.063ZM74.547,229.051L54.355,229L53.371,230.594L56.105,235.278L58.84,239.957L65.242,248.086L71.645,256.219L87.738,271.125L95.738,276.457L103.738,281.785L111.117,285.473L118.496,289.157L141.738,296.914L150.617,298.457L159.5,300L167.117,299.969L174.738,299.938L181.605,299.051L188.473,298.168L190.355,296.285L188.109,289.895L185.867,283.5L185.973,275L186.082,266.5L188.641,248.629L191.203,230.758L190.117,229L159.977,229L161.055,237.5L162.77,247.305L164.488,257.106L162.188,259.555L159.891,262L158.109,260.387L156.324,258.774L153.324,249.637L150.32,240.5L148.969,235L147.613,229.5L128.926,229.231L110.238,228.957L110.238,232.231L116.574,241.867L122.91,251.5L129.574,258.332L136.238,265.16L136.238,271.063L134.605,271.692L132.977,272.317L125.984,268.551L117.859,260.453L109.738,252.356L94.738,229.098L74.547,229.051Z" style="fill:rgb(59,194,197);fill-rule:nonzero;"/>
            </g>
            <g transform="matrix(4.76945,0,0,-4.18277,1320.13,1939.75)">
                <path d="M154.238,1.75L5.508,1.75L2.871,3.824L0.238,5.899L0.238,12.637L2.461,14.196L4.684,15.75L20.738,15.781L21.789,16.516L22.844,17.25L26.66,29.25L30.473,41.25L35.246,50.75L40.016,60.25L44.809,66.75L49.598,73.25L59.738,83.992L65.824,88.344L71.914,92.696L79.324,96.199L86.738,99.703L93.434,101.446L100.133,103.188L101.34,101.981L85.008,85.617L68.676,69.25L62.98,61.711L57.281,54.172L52.797,46.297L48.309,38.422L45.402,30.336L42.492,22.25L41.102,17.75L44.07,17.75L61.969,33.25L70.09,39.09L78.215,44.934L98.738,56.418L102.605,59.071L106.477,61.723L117.211,65.106L117.871,64.449L118.527,63.789L115.973,58.02L113.414,52.25L111.324,45.395L109.238,38.539L109.238,32.348L110.438,33.551L111.637,34.75L115.238,34.75L115.238,36.867L113.238,35.633L113.238,37.856L115.988,41.305L118.738,44.75L121.004,44.75L122.051,48.75L127.273,48.75L126.094,53.453L132.414,58.625L138.738,63.801L156.238,75.414L173.738,87.024L180.062,91.965L186.391,96.903L187.812,96.36L189.238,95.813L189.219,85.531L189.203,75.25L186.305,63.25L186.234,60.469L197.055,61.586L201.734,64.602L209.039,67.133L216.348,69.668L227.191,75.871L231.461,79.422L235.734,82.973L236.938,85.114L238.145,87.25L239.855,92.59L241.562,97.926L240.648,98.59L239.734,99.25L238.609,101.25L237.488,103.25L234.359,103.242L231.234,103.235L231.234,106.727L242.258,119.719L245.203,124.364L248.152,129.012L248.793,133.305L249.438,137.598L248.309,162.926L247.18,188.25L244.367,213.25L241.32,221.25L241.234,232.657L240.145,235.051L239.055,237.442L240.035,240.848L241.016,244.25L241.734,246L242.449,247.75L238.234,247.75L238.258,253L238.277,258.25L240.199,262.485L242.121,266.715L246.68,271.145L251.234,275.574L251.234,277.36L257.734,283.313L261.754,286.395L265.777,289.477L269.965,291.614L274.156,293.75L280.734,293.813L278.734,294.895L276.734,295.973L263.289,309.824L254.734,313.707L242.734,313.731L237.734,311.395L232.734,309.055L228.395,304.328L224.059,299.602L220.309,291.125L218.77,285.231L217.234,279.332L217.238,274.293L217.238,269.25L218.785,255.75L220.336,242.25L232.414,160.25L232.008,151.25L231.605,142.25L229.309,137.75L227.008,133.25L224.871,130.907L222.734,128.559L219.023,126.657L215.316,124.75L211.523,124.774L207.734,124.797L203.266,126.824L198.793,128.856L195.516,131.356L192.234,133.856L192.234,135.754L203.922,135.754L208.25,138.043L212.582,140.332L214.398,143.836L216.219,147.34L217.406,156.254L203.039,256.254L202.5,269.344L201.965,282.434L203.621,289.887L205.281,297.34L208.137,303.379L210.992,309.422L217.219,316.074L223.441,322.731L230.066,325.992L236.688,329.254L259.766,329.254L272.945,322.77L277.355,318.012L281.77,313.254L283.918,310.254L286.07,307.254L319.734,306.035L330.734,301.793L338.305,295.551L342.961,286.254L343.617,282.637L344.273,279.024L342.504,276.914L340.734,274.809L327.734,272.832L306.734,271.246L285.734,269.664L274.133,266.461L270.203,263.614L266.273,260.77L263.82,257.012L261.371,253.254L260.691,249.512L260.016,245.774L263.133,244.578L272.156,249.414L281.18,254.254L284.734,252.106L295.273,238.254L300.363,228.379L305.453,218.5L308.871,208.379L312.289,198.254L313.676,192.254L315.059,186.254L316.289,176.344L317.523,166.43L316.922,150.844L316.324,135.254L315.258,129.012L314.195,122.774L310.68,110.563L307.168,98.356L302.488,88.805L297.812,79.254L285.867,61.254L273.301,48.672L260.734,36.094L254.652,32L248.566,27.907L238.812,22.692L229.059,17.481L230.398,16.633L231.734,15.785L303.789,15.754L306.012,14.199L308.234,12.641L308.234,5.903L305.602,3.828L302.965,1.754L154.238,1.75ZM116.57,36.75L118.367,36.75L120.301,37.785L122.238,38.821L122.238,40.75L117.48,40.75L116.367,39.41L115.254,38.067L115.914,37.41L116.57,36.75ZM124.57,40.75L126.238,40.75L126.238,43.75L124.355,43.75L123.293,42.031L123.93,41.391L124.57,40.75ZM329.645,2.34L327.551,1.715L324.895,3.809L322.238,5.899L322.238,11.442L324.203,13.223L326.172,15L331.617,15L333.488,12.692L335.359,10.379L334.734,7.817L334.105,5.25L332.922,4.11L331.738,2.965L329.645,2.34ZM355.051,1.817L354.738,1.879L350.207,3.699L349.223,6.289L348.238,8.883L350.535,13.25L351.637,13.989L352.738,14.723L355.332,14.735L357.926,14.75L361.238,11.094L361.207,6.25L360.473,5.149L359.738,4.051L357.555,2.899L355.371,1.75L355.051,1.817ZM229.074,99.715L226.738,98.52L228.465,100.324L230.188,102.133L230.801,101.524L231.41,100.914L229.074,99.715ZM45.977,99.75L45.352,99.75L42.18,104.25L39.699,112.082L37.219,119.91L35.824,128.082L34.43,136.25L33.031,150.797L34.254,152.274L35.48,153.75L79.168,153.75L81.238,149.883L81.238,141.91L69.426,130.082L57.617,118.25L45.977,99.75ZM228.902,103.086L228.238,102.418L228.238,105.086L228.902,104.418L229.57,103.75L228.902,103.086ZM96.238,151.75L94.238,151.75L94.238,153.75L96.238,153.75L96.238,151.75ZM200.504,161.68L199.738,160.981L195.738,162.43L191.738,163.883L176.738,167.594L157.738,169.977L156.16,172.25L157.301,210.25L157.828,214.5L158.359,218.75L193.199,218.75L193.645,216.5L194.086,214.25L197.68,188.317L201.27,162.383L200.504,161.68ZM57.625,164.985L35.512,164.715L33.121,167.598L34.215,175.926L35.309,184.25L37.824,194.504L40.344,204.754L43.059,211.504L45.77,218.25L67.625,218.524L89.477,218.793L88.977,216.524L88.473,214.25L85.887,204.852L83.301,195.449L82.203,185.352L81.105,175.25L79.738,165.25L57.625,164.985ZM124.738,165.516L116.738,165.102L104.84,165.461L92.941,165.817L93.555,175.035L94.168,184.25L97.371,201.25L99.477,208.75L101.578,216.25L103.516,218.789L124.625,218.52L145.738,218.25L145.609,214.75L145.477,211.25L143.922,170.735L142.828,169.903L141.738,169.074L133.238,167.293L124.738,165.516ZM74.234,230.75L54.238,230.75L54.238,233.496L59.344,241.375L64.453,249.25L76.609,261.371L88.766,273.489L95.754,277.996L102.738,282.5L120.738,291.508L130.262,294.555L139.785,297.598L156.738,301.129L167.238,301.192L177.738,301.25L183.59,300.418L189.438,299.582L188.965,296.918L188.492,294.25L186.738,287.75L184.988,281.25L185.617,273.02L186.246,264.785L188.32,250.52L190.398,236.25L190.566,233.75L190.738,231.25L161.895,230.696L161.016,231.571L160.141,232.449L162.777,246.778L165.414,261.11L163.074,262.91L160.738,264.707L158.668,264.754L155.457,259.254L149.457,240.254L148.73,236.754L148.008,233.254L145.992,230.754L110.238,230.754L110.238,233.446L117.148,243.848L124.062,254.254L130.648,260.723L137.238,267.196L137.223,270.223L137.207,273.254L136.32,274.657L135.43,276.055L130.812,273.348L126.191,270.641L119.656,264.528L113.121,258.418L101.738,242.965L94.23,230.754L74.234,230.75ZM247.852,283.832L245.738,283.91L244.238,284.457L242.738,285.008L238.27,289.071L237.059,295.508L240.27,301.719L243.328,303.297L246.383,304.879L252.211,303.598L254.184,301.094L256.156,298.586L257.383,294.719L255.094,287.781L249.969,283.75L247.852,283.832Z" style="fill:rgb(71,119,134);fill-rule:nonzero;"/>
            </g>
            <g transform="matrix(4.76945,0,0,-4.18277,1320.13,1935.29)">
                <path d="M155.883,2.066L8.738,1.949L6.496,2.386L4.254,2.82L2.746,4.976L1.238,7.129L1.238,9.683L5.238,13.683L23.281,13.683L25.117,18.183L28.137,28.183L31.152,38.183L35.672,47.457L40.191,56.726L44.207,62.644L48.227,68.558L59.609,80.855L65.172,85.132L70.738,89.414L84.738,96.406L89.992,98.129L95.246,99.847L97.113,99.183L64.738,65.136L59.578,58.16L54.422,51.183L46.406,36.183L43.32,27.355L40.238,18.527L40.238,14.683L51.488,14.691L62.738,14.695L68.238,15.605L73.738,16.511L79.238,18.601L84.738,20.695L86.004,21.507L87.27,22.324L89.598,30.781L91.926,39.242L97.41,51.461L100.672,54.621L103.938,57.785L109.836,60.191L115.738,62.593L116.012,61.816L116.285,61.043L111.48,50.175L107.238,35.058L107.238,29.683L111.383,29.683L118.816,32.179L126.246,34.675L145.16,43.511L160.043,53.8L170.855,65.183L175.258,71.683L179.656,78.183L182.836,85.492L186.016,92.797L187.141,93.922L187.832,91.168L188.52,88.418L187.301,70.183L184.512,60.183L184.441,58.019L184.375,55.851L181.746,50.3L179.121,44.75L170.238,32.679L170.238,31.683L176.816,31.683L182.672,33.211L188.527,34.734L204.395,42.992L212.438,50.554L220.477,58.117L226.508,66.152L232.543,74.183L234.871,76.722L237.203,79.257L240.07,85.222L242.941,91.183L247.152,104.183L248.785,113.082L250.414,121.98L250.414,152.562L249.801,163.375L249.191,174.183L246.23,229.183L245.77,256.183L250.441,265.183L256.59,271.074L262.738,276.961L258.488,276.312L254.238,275.66L254.238,277.312L256.988,279.925L259.738,282.543L262.391,283.199L265.047,283.855L265.922,287.183L270.828,289.683L275.738,292.183L295.738,291.886L307.602,290.234L319.469,288.582L319.918,289.035L320.371,289.484L313.738,291.586L301.738,293.672L290.023,294.625L278.312,295.574L276.523,296.562L274.738,297.55L271.289,301.918L267.84,306.289L264.34,309.015L260.836,311.746L255.41,313.324L249.984,314.898L245.965,314.257L241.945,313.613L237.07,311.519L232.195,309.422L222.5,298.812L219.723,292L216.949,285.183L216.059,264.183L218.176,247.683L220.289,231.183L230.594,163.183L230.664,153.183L230.738,143.183L228.414,138.05L226.09,132.922L223.414,130.355L220.738,127.793L216.859,126.172L212.984,124.55L209.301,125.175L205.617,125.797L200.426,128.761L195.238,131.726L195.238,133.683L204.605,133.683L208.883,135.757L213.16,137.828L215.34,141.351L217.516,144.875L217.969,151.531L218.422,158.183L205.305,250.183L204.164,261.683L203.027,273.183L204.34,286.183L205.441,290.683L206.547,295.183L208.859,300.488L211.172,305.789L214.891,310.504L218.609,315.214L223.172,318.964L227.738,322.714L233.234,324.777L238.734,326.843L245.344,327.398L251.957,327.953L262.738,325.414L266.586,323.476L270.438,321.543L279.453,313.23L282.285,309.117L285.113,305.004L301.59,304.382L318.062,303.765L323.867,301.722L329.672,299.683L333.203,296.882L336.738,294.086L342.238,283.328L342.238,276.929L339.738,274.906L331.238,273.82L322.738,272.738L291.738,270.574L285.359,269.59L278.984,268.605L275.438,267.125L271.891,265.64L267.656,262.175L263.426,258.707L261.332,254.379L259.238,250.054L259.238,242.55L261.488,243.23L263.738,243.914L272.457,248.547L281.18,253.183L282.957,252.109L284.738,251.035L295.277,237.183L300.363,227.308L305.453,217.433L308.871,207.308L312.293,197.183L315.059,185.183L316.293,175.273L317.523,165.363L316.926,149.773L316.324,134.183L315.262,127.945L314.195,121.703L310.684,109.496L307.168,97.285L302.492,87.734L297.812,78.183L291.844,69.183L285.871,60.183L273.305,47.605L260.738,35.023L254.238,30.648L247.738,26.269L225.465,14.793L226.016,14.238L226.57,13.683L302.793,13.683L305.016,12.129L307.238,10.57L307.238,5.996L303.027,2.183L155.883,2.066ZM321.238,287.683L322.238,287.683L322.238,288.683L321.238,288.683L321.238,287.683ZM330.836,2.683L326.281,2.683L323.008,7.683L326.281,12.683L330.836,12.683L332.035,11.484L333.238,10.285L333.238,5.086L332.035,3.886L330.836,2.683ZM357.094,2.683L352.637,2.683L351.438,3.886L350.238,5.086L350.238,9.543L353.379,12.683L356.926,12.683L360.238,9.027L360.238,5.828L358.664,4.257L357.094,2.683ZM45.984,101.683L44.332,101.683L38.137,121.019L36.695,130.601L35.25,140.183L35.242,145.433L35.238,150.683L79.238,150.683L79.238,140.675L56.66,118.183L51.32,109.933L45.984,101.683ZM198.488,161.714L197.738,161.746L194.738,163.504L188.238,165.226L181.738,166.953L170.238,168.632L158.738,170.316L158.422,183.25L158.102,196.183L159.43,216.683L192.113,216.683L193.184,208.183L199.246,165.183L199.242,163.433L199.234,161.683L198.488,161.714ZM79.238,165.683L35.238,165.683L35.238,169.433L35.242,173.183L36.777,181.945L38.309,190.707L43.09,207.183L45.125,211.933L47.164,216.683L87.465,216.683L86.457,211.183L81.441,192.183L80.34,183.183L79.242,174.183L79.238,169.933L79.238,165.683ZM111.48,165.968L95.227,165.55L94.578,167.234L93.934,168.918L95.676,181.441L97.414,193.964L99.902,203.535L102.391,213.101L103.348,214.894L104.309,216.683L144.137,216.683L143.562,193.933L142.984,171.183L141.703,169.754L134.719,168.07L127.738,166.39L111.48,165.968ZM93.07,230.683L56.238,230.683L56.238,233.207L65.02,246.183L76.996,259.925L90.738,271.941L103.738,280.433L119.738,288.402L138.738,294.59L151.738,298.129L186.137,298.183L187.125,297.183L188.109,296.183L184.031,284.183L184.18,268.183L189.297,232.59L188.117,230.683L163.176,230.683L162.57,232.257L161.969,233.832L165.078,249.507L168.184,265.183L167.066,269.441L164.75,270.496L162.438,271.55L160.957,270.367L159.473,269.183L155.875,261.683L152.273,254.183L149.691,244.683L147.105,235.183L146.191,232.933L145.281,230.683L112.238,230.683L112.23,231.933L112.227,233.183L125.102,252.183L135.168,262.093L145.238,272.004L145.199,272.593L145.164,273.183L140.469,278.925L133.723,275.601L126.973,272.281L117.711,263.234L108.445,254.183L93.07,230.683ZM251.094,284.683L243.586,284.683L241.41,287L239.238,289.312L239.238,296.777L244.145,301.683L250.887,301.683L253.062,299.371L255.238,297.054L255.238,289.953L253.164,287.32L251.094,284.683Z" style="fill:rgb(245,59,4);fill-rule:nonzero;"/>
            </g>
            <g transform="matrix(4.76945,0,0,-4.18277,1320.13,1935.29)">
                <path d="M155.883,2.066L8.738,1.949L6.496,2.386L4.254,2.82L2.746,4.976L1.238,7.129L1.238,9.683L5.238,13.683L23.281,13.683L25.117,18.183L28.137,28.183L31.152,38.183L35.672,47.457L40.191,56.726L44.207,62.644L48.227,68.558L59.609,80.855L65.172,85.132L70.738,89.414L84.738,96.406L89.992,98.129L95.246,99.847L97.113,99.183L64.738,65.136L59.578,58.16L54.422,51.183L46.406,36.183L43.32,27.355L40.238,18.527L40.238,14.683L51.488,14.691L62.738,14.695L68.238,15.605L73.738,16.511L79.238,18.601L84.738,20.695L86.004,21.507L87.27,22.324L89.598,30.781L91.926,39.242L97.41,51.461L100.672,54.621L103.938,57.785L109.836,60.191L115.738,62.593L116.012,61.816L116.285,61.043L111.48,50.175L107.238,35.058L107.238,29.683L111.383,29.683L118.816,32.179L126.246,34.675L145.16,43.511L160.043,53.8L170.855,65.183L175.258,71.683L179.656,78.183L182.836,85.492L186.016,92.797L187.141,93.922L187.832,91.168L188.52,88.418L187.301,70.183L184.512,60.183L184.441,58.019L184.375,55.851L181.746,50.3L179.121,44.75L170.238,32.679L170.238,31.683L176.816,31.683L182.672,33.211L188.527,34.734L204.395,42.992L212.438,50.554L220.477,58.117L226.508,66.152L232.543,74.183L234.871,76.722L237.203,79.257L240.07,85.222L242.941,91.183L247.152,104.183L248.785,113.082L250.414,121.98L250.414,152.562L249.801,163.375L249.191,174.183L246.23,229.183L245.77,256.183L250.441,265.183L256.59,271.074L262.738,276.961L258.488,276.312L254.238,275.66L254.238,277.312L257.301,280.246L260.363,283.183L292.551,283.824L324.738,284.461L324.988,284.574L325.238,284.683L325.238,286.644L321.148,288.73L317.062,290.816L309.73,292.218L302.402,293.621L290.359,294.593L278.32,295.57L276.527,296.558L274.738,297.55L271.289,301.918L267.84,306.289L264.34,309.015L260.836,311.746L255.41,313.324L249.984,314.898L245.965,314.257L241.945,313.613L237.07,311.519L232.195,309.422L222.5,298.812L219.723,292L216.949,285.183L216.059,264.183L218.176,247.683L220.289,231.183L230.594,163.183L230.664,153.183L230.738,143.183L228.414,138.05L226.09,132.922L223.414,130.355L220.738,127.793L216.859,126.172L212.984,124.55L209.301,125.175L205.617,125.797L200.426,128.761L195.238,131.726L195.238,133.683L204.605,133.683L208.883,135.757L213.16,137.828L215.34,141.351L217.516,144.875L217.969,151.531L218.422,158.183L205.305,250.183L204.164,261.683L203.027,273.183L204.34,286.183L205.441,290.683L206.547,295.183L208.859,300.488L211.172,305.789L214.891,310.504L218.609,315.214L223.172,318.964L227.738,322.714L233.234,324.777L238.734,326.843L245.344,327.398L251.957,327.953L262.738,325.414L266.586,323.476L270.438,321.543L279.453,313.23L282.285,309.117L285.113,305.004L301.59,304.382L318.062,303.765L323.867,301.722L329.672,299.683L333.203,296.882L336.738,294.086L342.238,283.328L342.238,276.929L339.738,274.906L331.238,273.82L322.738,272.738L291.738,270.574L285.359,269.59L278.984,268.605L271.891,265.644L267.656,262.175L263.426,258.707L261.34,254.402L259.258,250.093L260.285,230.64L261.309,211.183L262.812,186.418L264.316,161.648L264.883,141.918L265.445,122.183L263.863,111.89L262.277,101.597L259.23,92.504L256.184,83.406L251.16,73.632L246.141,63.855L240.203,55.882L234.266,47.906L225.5,39.015L216.738,30.121L207.297,23.652L197.859,17.183L197.52,16.093L197.176,15.004L240.738,13.691L302.793,13.683L305.016,12.129L307.238,10.57L307.238,5.996L303.027,2.183L155.883,2.066ZM330.836,2.683L326.281,2.683L323.008,7.683L326.281,12.683L330.836,12.683L332.035,11.484L333.238,10.285L333.238,5.086L332.035,3.886L330.836,2.683ZM357.094,2.683L352.637,2.683L351.438,3.886L350.238,5.086L350.238,9.543L353.379,12.683L356.926,12.683L360.238,9.027L360.238,5.828L358.664,4.257L357.094,2.683ZM45.984,101.683L44.332,101.683L38.137,121.019L36.695,130.601L35.25,140.183L35.242,145.433L35.238,150.683L79.238,150.683L79.238,140.675L56.66,118.183L51.32,109.933L45.984,101.683ZM198.488,161.714L197.738,161.746L194.738,163.504L188.238,165.226L181.738,166.953L170.238,168.632L158.738,170.316L158.422,183.25L158.102,196.183L159.43,216.683L192.113,216.683L193.184,208.183L199.246,165.183L199.242,163.433L199.234,161.683L198.488,161.714ZM79.238,165.683L35.238,165.683L35.238,169.433L35.242,173.183L36.777,181.945L38.309,190.707L43.09,207.183L45.125,211.933L47.164,216.683L87.465,216.683L86.457,211.183L81.441,192.183L80.34,183.183L79.242,174.183L79.238,169.933L79.238,165.683ZM111.48,165.968L95.227,165.55L94.578,167.234L93.934,168.918L95.676,181.441L97.414,193.964L99.902,203.535L102.391,213.101L103.348,214.894L104.309,216.683L144.137,216.683L143.562,193.933L142.984,171.183L141.703,169.754L134.719,168.07L127.738,166.39L111.48,165.968ZM93.07,230.683L56.238,230.683L56.238,233.207L65.02,246.183L76.996,259.925L90.738,271.941L103.738,280.433L119.738,288.402L138.738,294.59L151.738,298.129L186.137,298.183L187.125,297.183L188.109,296.183L184.031,284.183L184.18,268.183L189.297,232.59L188.117,230.683L163.176,230.683L162.57,232.257L161.969,233.832L165.078,249.507L168.184,265.183L167.066,269.441L164.75,270.496L162.438,271.55L160.957,270.367L159.473,269.183L155.875,261.683L152.273,254.183L149.691,244.683L147.105,235.183L146.191,232.933L145.281,230.683L112.238,230.683L112.23,231.933L112.227,233.183L125.102,252.183L135.168,262.093L145.238,272.004L145.199,272.593L145.164,273.183L140.469,278.925L133.723,275.601L126.973,272.281L117.711,263.234L108.445,254.183L93.07,230.683ZM251.094,284.683L243.586,284.683L241.41,287L239.238,289.312L239.238,296.777L244.145,301.683L250.887,301.683L253.062,299.371L255.238,297.054L255.238,289.953L253.164,287.32L251.094,284.683Z" style="fill:rgb(9,38,65);fill-rule:nonzero;"/>
            </g>
        </g>
    </g>
</svg>
